<svg width="49" height="48" viewBox="0 0 49 48" fill="none" xmlns="http://www.w3.org/2000/svg">
<path d="M6.76471 24C4.56471 24 2.76471 22.2 2.76471 20V10C2.76471 7.8 4.56471 6 6.76471 6H22.7647C24.9647 6 26.7647 7.8 26.7647 10V20C26.7647 22.2 24.9647 24 22.7647 24H18.7647V30L12.7647 24H6.76471ZM42.7647 36C44.9647 36 46.7647 34.2 46.7647 32V22C46.7647 19.8 44.9647 18 42.7647 18H30.7647V20C30.7647 24.4 27.1647 28 22.7647 28V32C22.7647 34.2 24.5647 36 26.7647 36H30.7647V42L36.7647 36H42.7647Z" fill="#3786F6"/>
</svg>
