<svg width="154" height="48" viewBox="0 0 154 48" fill="none" xmlns="http://www.w3.org/2000/svg">
<path d="M6.76471 24C4.56471 24 2.76471 22.2 2.76471 20V10C2.76471 7.8 4.56471 6 6.76471 6H22.7647C24.9647 6 26.7647 7.8 26.7647 10V20C26.7647 22.2 24.9647 24 22.7647 24H18.7647V30L12.7647 24H6.76471ZM42.7647 36C44.9647 36 46.7647 34.2 46.7647 32V22C46.7647 19.8 44.9647 18 42.7647 18H30.7647V20C30.7647 24.4 27.1647 28 22.7647 28V32C22.7647 34.2 24.5647 36 26.7647 36H30.7647V42L36.7647 36H42.7647Z" fill="#3786F6"/>
<path d="M69.6518 37.9882C67.9718 37.9882 66.5106 37.6847 65.2683 37.0776C64.0259 36.4565 63.073 35.5812 62.4094 34.4518C61.7459 33.3224 61.4141 32.0094 61.4141 30.5129C61.4141 28.4376 61.8024 26.5953 62.5788 24.9859C63.3694 23.3765 64.4353 22.1341 65.7765 21.2588C67.1177 20.3694 68.6071 19.9247 70.2447 19.9247C71.7694 19.9247 72.9271 20.32 73.7177 21.1106C74.5083 21.8871 74.9035 22.9176 74.9035 24.2024C74.9035 25.0635 74.7483 25.7553 74.4377 26.2776C74.1412 26.8 73.7106 27.0612 73.1459 27.0612C72.7506 27.0612 72.44 26.9694 72.2141 26.7859C71.9883 26.6024 71.8753 26.3341 71.8753 25.9812C71.8753 25.8541 71.9035 25.6212 71.96 25.2824C72.0447 24.8588 72.0871 24.52 72.0871 24.2659C72.0871 22.9812 71.4024 22.3388 70.033 22.3388C69.1012 22.3388 68.2118 22.6424 67.3647 23.2494C66.5177 23.8565 65.833 24.7529 65.3106 25.9388C64.7883 27.1106 64.5271 28.5082 64.5271 30.1318C64.5271 31.8259 65 33.1388 65.9459 34.0706C66.8918 34.9882 68.2894 35.4471 70.1388 35.4471C71.0565 35.4471 71.9812 35.3341 72.913 35.1082C73.8588 34.8682 74.9035 34.5082 76.0471 34.0282C76.2588 33.9435 76.4353 33.9012 76.5765 33.9012C76.8024 33.9012 76.9718 33.9859 77.0847 34.1553C77.1977 34.3247 77.2541 34.5435 77.2541 34.8118C77.2541 35.6729 76.7883 36.3082 75.8565 36.7176C74.8541 37.1553 73.8094 37.48 72.7224 37.6918C71.6494 37.8894 70.6259 37.9882 69.6518 37.9882ZM87.3457 33.16C87.5292 33.16 87.6704 33.2447 87.7692 33.4141C87.8822 33.5835 87.9387 33.8165 87.9387 34.1129C87.9387 34.6776 87.8045 35.1153 87.5363 35.4259C86.8869 36.1741 86.2163 36.7882 85.5245 37.2682C84.8469 37.7482 84.0704 37.9882 83.1951 37.9882C82.4751 37.9882 81.9316 37.7835 81.5645 37.3741C81.1975 36.9506 81.0139 36.3435 81.0139 35.5529C81.0139 35.1576 81.1128 34.4518 81.3104 33.4353C81.4939 32.5459 81.5857 31.9318 81.5857 31.5929C81.5857 31.3671 81.5081 31.2541 81.3528 31.2541C81.1692 31.2541 80.9081 31.4941 80.5692 31.9741C80.2304 32.44 79.8916 33.0612 79.5528 33.8376C79.2139 34.6141 78.9387 35.4329 78.7269 36.2941C78.4587 37.4235 77.7951 37.9882 76.7363 37.9882C76.3128 37.9882 76.0304 37.84 75.8892 37.5435C75.7622 37.2329 75.6987 36.6824 75.6987 35.8918C75.6987 35.44 75.7057 35.08 75.7198 34.8118L75.741 33.1176C75.741 30.9435 75.9598 28.6776 76.3975 26.32C76.8492 23.9624 77.5057 21.9859 78.3669 20.3906C79.2422 18.7812 80.2869 17.9765 81.501 17.9765C82.1504 17.9765 82.6728 18.2588 83.0681 18.8235C83.4775 19.3741 83.6822 20.0941 83.6822 20.9835C83.6822 22.4094 83.2657 23.8918 82.4328 25.4306C81.5998 26.9553 80.2445 28.7412 78.3669 30.7882C78.3245 31.5224 78.3034 32.2776 78.3034 33.0541C78.7692 31.8541 79.2845 30.88 79.8492 30.1318C80.4281 29.3694 80.9928 28.8259 81.5434 28.5012C82.1081 28.1765 82.6234 28.0141 83.0892 28.0141C84.0069 28.0141 84.4657 28.4729 84.4657 29.3906C84.4657 29.9412 84.3104 30.9365 83.9998 32.3765C83.7316 33.6047 83.5975 34.4165 83.5975 34.8118C83.5975 35.3765 83.8022 35.6588 84.2116 35.6588C84.4939 35.6588 84.8257 35.4894 85.2069 35.1506C85.6022 34.7976 86.1245 34.2329 86.774 33.4565C86.9434 33.2588 87.1339 33.16 87.3457 33.16ZM81.0563 20.0729C80.8022 20.0729 80.5198 20.44 80.2092 21.1741C79.8987 21.8941 79.5951 22.8753 79.2987 24.1176C79.0163 25.3459 78.7834 26.6871 78.5998 28.1412C79.4751 27.1106 80.1951 25.9882 80.7598 24.7741C81.3387 23.56 81.6281 22.4588 81.6281 21.4706C81.6281 21.0188 81.5787 20.6729 81.4798 20.4329C81.381 20.1929 81.2398 20.0729 81.0563 20.0729ZM88.9965 26.6165C88.4035 26.6165 87.9588 26.4824 87.6624 26.2141C87.3659 25.9318 87.2177 25.5435 87.2177 25.0494C87.2177 24.5553 87.4083 24.1459 87.7894 23.8212C88.1847 23.4824 88.6718 23.3129 89.2506 23.3129C89.773 23.3129 90.1965 23.44 90.5212 23.6941C90.8459 23.9482 91.0083 24.3082 91.0083 24.7741C91.0083 25.3388 90.8247 25.7906 90.4577 26.1294C90.0906 26.4541 89.6035 26.6165 88.9965 26.6165ZM88.8271 37.9882C87.9094 37.9882 87.2388 37.6635 86.8153 37.0141C86.4059 36.3647 86.2012 35.5035 86.2012 34.4306C86.2012 33.7953 86.2788 32.9835 86.4341 31.9953C86.6035 30.9929 86.8153 30.0612 87.0694 29.2C87.1965 28.7482 87.3659 28.4376 87.5777 28.2682C87.7894 28.0988 88.1283 28.0141 88.5941 28.0141C89.3141 28.0141 89.6741 28.2541 89.6741 28.7341C89.6741 29.0871 89.54 29.9059 89.2718 31.1906C88.933 32.7435 88.7635 33.7953 88.7635 34.3459C88.7635 34.7694 88.82 35.0941 88.933 35.32C89.0459 35.5459 89.2365 35.6588 89.5047 35.6588C89.7588 35.6588 90.0765 35.4824 90.4577 35.1294C90.8388 34.7765 91.3471 34.2188 91.9824 33.4565C92.1518 33.2588 92.3424 33.16 92.5541 33.16C92.7377 33.16 92.8788 33.2447 92.9777 33.4141C93.0906 33.5835 93.1471 33.8165 93.1471 34.1129C93.1471 34.6776 93.013 35.1153 92.7447 35.4259C91.3471 37.1341 90.0412 37.9882 88.8271 37.9882ZM100.878 33.16C101.062 33.16 101.203 33.2447 101.302 33.4141C101.415 33.5835 101.471 33.8165 101.471 34.1129C101.471 34.6776 101.337 35.1153 101.069 35.4259C100.462 36.1741 99.7985 36.7882 99.0785 37.2682C98.3585 37.7482 97.5326 37.9882 96.6008 37.9882C93.7208 37.9882 92.2808 35.9624 92.2808 31.9106C92.2808 31.2894 92.302 30.6612 92.3444 30.0259H91.5185C91.0949 30.0259 90.8055 29.9482 90.6502 29.7929C90.5091 29.6376 90.4385 29.3906 90.4385 29.0518C90.4385 28.2612 90.7561 27.8659 91.3914 27.8659H92.5985C92.8385 26.3129 93.2055 24.8941 93.6996 23.6094C94.1938 22.3247 94.7867 21.3012 95.4785 20.5388C96.1844 19.7765 96.9396 19.3953 97.7444 19.3953C98.3373 19.3953 98.8032 19.6565 99.142 20.1788C99.4808 20.7012 99.6502 21.3576 99.6502 22.1482C99.6502 24.3365 98.7326 26.2424 96.8973 27.8659H99.2691C99.4949 27.8659 99.6573 27.9153 99.7561 28.0141C99.8549 28.1129 99.9044 28.2965 99.9044 28.5647C99.9044 29.5388 99.1067 30.0259 97.5114 30.0259H94.9279C94.8996 30.7318 94.8855 31.2824 94.8855 31.6776C94.8855 33.1459 95.0549 34.1765 95.3938 34.7694C95.7467 35.3624 96.2973 35.6588 97.0455 35.6588C97.6526 35.6588 98.1891 35.4753 98.6549 35.1082C99.1208 34.7412 99.6714 34.1906 100.307 33.4565C100.476 33.2588 100.667 33.16 100.878 33.16ZM97.1726 21.4282C96.9608 21.4282 96.7208 21.6965 96.4526 22.2329C96.1985 22.7553 95.9514 23.4894 95.7114 24.4353C95.4855 25.3671 95.2949 26.4047 95.1396 27.5482C95.9726 26.8282 96.5938 26.0235 97.0032 25.1341C97.4267 24.2306 97.6385 23.4118 97.6385 22.6776C97.6385 21.8447 97.4832 21.4282 97.1726 21.4282ZM108.324 37.9882C106.644 37.9882 105.182 37.6847 103.94 37.0776C102.698 36.4565 101.745 35.5812 101.081 34.4518C100.418 33.3224 100.086 32.0094 100.086 30.5129C100.086 28.4376 100.474 26.5953 101.251 24.9859C102.041 23.3765 103.107 22.1341 104.448 21.2588C105.79 20.3694 107.279 19.9247 108.917 19.9247C110.441 19.9247 111.599 20.32 112.39 21.1106C113.18 21.8871 113.575 22.9176 113.575 24.2024C113.575 25.0635 113.42 25.7553 113.11 26.2776C112.813 26.8 112.382 27.0612 111.818 27.0612C111.422 27.0612 111.112 26.9694 110.886 26.7859C110.66 26.6024 110.547 26.3341 110.547 25.9812C110.547 25.8541 110.575 25.6212 110.632 25.2824C110.717 24.8588 110.759 24.52 110.759 24.2659C110.759 22.9812 110.074 22.3388 108.705 22.3388C107.773 22.3388 106.884 22.6424 106.037 23.2494C105.19 23.8565 104.505 24.7529 103.982 25.9388C103.46 27.1106 103.199 28.5082 103.199 30.1318C103.199 31.8259 103.672 33.1388 104.618 34.0706C105.564 34.9882 106.961 35.4471 108.811 35.4471C109.728 35.4471 110.653 35.3341 111.585 35.1082C112.531 34.8682 113.575 34.5082 114.719 34.0282C114.931 33.9435 115.107 33.9012 115.248 33.9012C115.474 33.9012 115.644 33.9859 115.757 34.1553C115.87 34.3247 115.926 34.5435 115.926 34.8118C115.926 35.6729 115.46 36.3082 114.528 36.7176C113.526 37.1553 112.481 37.48 111.394 37.6918C110.321 37.8894 109.298 37.9882 108.324 37.9882ZM126.018 33.16C126.201 33.16 126.342 33.2447 126.441 33.4141C126.554 33.5835 126.611 33.8165 126.611 34.1129C126.611 34.6776 126.476 35.1153 126.208 35.4259C125.559 36.1741 124.888 36.7882 124.196 37.2682C123.519 37.7482 122.742 37.9882 121.867 37.9882C121.147 37.9882 120.603 37.7835 120.236 37.3741C119.869 36.9506 119.686 36.3435 119.686 35.5529C119.686 35.1576 119.785 34.4518 119.982 33.4353C120.166 32.5459 120.258 31.9318 120.258 31.5929C120.258 31.3671 120.18 31.2541 120.025 31.2541C119.841 31.2541 119.58 31.4941 119.241 31.9741C118.902 32.44 118.563 33.0612 118.225 33.8376C117.886 34.6141 117.611 35.4329 117.399 36.2941C117.131 37.4235 116.467 37.9882 115.408 37.9882C114.985 37.9882 114.702 37.84 114.561 37.5435C114.434 37.2329 114.371 36.6824 114.371 35.8918C114.371 35.44 114.378 35.08 114.392 34.8118L114.413 33.1176C114.413 30.9435 114.632 28.6776 115.069 26.32C115.521 23.9624 116.178 21.9859 117.039 20.3906C117.914 18.7812 118.959 17.9765 120.173 17.9765C120.822 17.9765 121.345 18.2588 121.74 18.8235C122.149 19.3741 122.354 20.0941 122.354 20.9835C122.354 22.4094 121.938 23.8918 121.105 25.4306C120.272 26.9553 118.916 28.7412 117.039 30.7882C116.996 31.5224 116.975 32.2776 116.975 33.0541C117.441 31.8541 117.956 30.88 118.521 30.1318C119.1 29.3694 119.665 28.8259 120.215 28.5012C120.78 28.1765 121.295 28.0141 121.761 28.0141C122.679 28.0141 123.138 28.4729 123.138 29.3906C123.138 29.9412 122.982 30.9365 122.672 32.3765C122.403 33.6047 122.269 34.4165 122.269 34.8118C122.269 35.3765 122.474 35.6588 122.883 35.6588C123.166 35.6588 123.498 35.4894 123.879 35.1506C124.274 34.7976 124.796 34.2329 125.446 33.4565C125.615 33.2588 125.806 33.16 126.018 33.16ZM119.728 20.0729C119.474 20.0729 119.192 20.44 118.881 21.1741C118.571 21.8941 118.267 22.8753 117.971 24.1176C117.688 25.3459 117.455 26.6871 117.272 28.1412C118.147 27.1106 118.867 25.9882 119.432 24.7741C120.011 23.56 120.3 22.4588 120.3 21.4706C120.3 21.0188 120.251 20.6729 120.152 20.4329C120.053 20.1929 119.912 20.0729 119.728 20.0729ZM127.499 37.9882C126.624 37.9882 125.925 37.6706 125.402 37.0353C124.88 36.4 124.619 35.5671 124.619 34.5365C124.619 33.4071 124.88 32.3412 125.402 31.3388C125.925 30.3224 126.617 29.5106 127.478 28.9035C128.353 28.2824 129.278 27.9718 130.252 27.9718C130.562 27.9718 130.767 28.0353 130.866 28.1624C130.979 28.2753 131.071 28.4871 131.141 28.7976C131.438 28.7412 131.748 28.7129 132.073 28.7129C132.765 28.7129 133.111 28.96 133.111 29.4541C133.111 29.7506 133.005 30.4565 132.793 31.5718C132.468 33.1953 132.306 34.3247 132.306 34.96C132.306 35.1718 132.355 35.3412 132.454 35.4682C132.567 35.5953 132.708 35.6588 132.878 35.6588C133.146 35.6588 133.471 35.4894 133.852 35.1506C134.233 34.7976 134.748 34.2329 135.398 33.4565C135.567 33.2588 135.758 33.16 135.97 33.16C136.153 33.16 136.294 33.2447 136.393 33.4141C136.506 33.5835 136.562 33.8165 136.562 34.1129C136.562 34.6776 136.428 35.1153 136.16 35.4259C135.581 36.1459 134.967 36.7529 134.318 37.2471C133.668 37.7412 133.04 37.9882 132.433 37.9882C131.967 37.9882 131.537 37.8329 131.141 37.5224C130.76 37.1976 130.471 36.76 130.273 36.2094C129.539 37.3953 128.614 37.9882 127.499 37.9882ZM128.261 35.8494C128.572 35.8494 128.868 35.6659 129.151 35.2988C129.433 34.9318 129.638 34.4447 129.765 33.8376L130.548 29.9412C129.955 29.9553 129.405 30.1812 128.897 30.6188C128.402 31.0424 128.007 31.6071 127.711 32.3129C127.414 33.0188 127.266 33.7671 127.266 34.5576C127.266 34.9953 127.351 35.32 127.52 35.5318C127.704 35.7435 127.951 35.8494 128.261 35.8494ZM138.336 30.0259C138.307 30.7318 138.293 31.2824 138.293 31.6776C138.293 32.6941 138.343 33.4918 138.441 34.0706C138.554 34.6353 138.731 35.0447 138.971 35.2988C139.225 35.5388 139.571 35.6588 140.008 35.6588C140.234 35.6588 140.503 35.5882 140.813 35.4471C141.124 35.3059 141.406 35.1224 141.66 34.8965C141.816 34.7553 141.971 34.6847 142.126 34.6847C142.296 34.6847 142.43 34.7835 142.528 34.9812C142.641 35.1647 142.698 35.3906 142.698 35.6588C142.698 35.9271 142.641 36.1882 142.528 36.4424C142.43 36.6965 142.274 36.9082 142.063 37.0776C141.328 37.6847 140.496 37.9882 139.564 37.9882C138.223 37.9882 137.241 37.4306 136.62 36.3153C135.999 35.1859 135.688 33.7176 135.688 31.9106C135.688 31.2894 135.71 30.6612 135.752 30.0259H134.926C134.503 30.0259 134.213 29.9482 134.058 29.7929C133.917 29.6376 133.846 29.3906 133.846 29.0518C133.846 28.2612 134.164 27.8659 134.799 27.8659H136.006C136.246 26.3129 136.613 24.8941 137.107 23.6094C137.601 22.3247 138.194 21.3012 138.886 20.5388C139.592 19.7765 140.347 19.3953 141.152 19.3953C141.745 19.3953 142.211 19.6565 142.55 20.1788C142.888 20.7012 143.058 21.3576 143.058 22.1482C143.058 24.3365 142.14 26.2424 140.305 27.8659H142.677C142.903 27.8659 143.065 27.9153 143.164 28.0141C143.263 28.1129 143.312 28.2965 143.312 28.5647C143.312 29.5388 142.514 30.0259 140.919 30.0259H138.336ZM140.58 21.4282C140.368 21.4282 140.128 21.6965 139.86 22.2329C139.606 22.7553 139.359 23.4894 139.119 24.4353C138.893 25.3671 138.703 26.4047 138.547 27.5482C139.38 26.8282 140.001 26.0235 140.411 25.1341C140.834 24.2306 141.046 23.4118 141.046 22.6776C141.046 21.8447 140.891 21.4282 140.58 21.4282Z" fill="white"/>
</svg>
